<svg width="35" height="35" viewBox="0 0 35 35" fill="none" xmlns="http://www.w3.org/2000/svg">
<path d="M3.41324 32.082H9.15723V26.5889H3.41324V32.082ZM10.4337 32.082H16.8159V26.5889H10.4337V32.082ZM3.41324 25.3683H9.15723V19.2648H3.41324V25.3683ZM10.4337 25.3683H16.8159V19.2648H10.4337V25.3683ZM3.41324 18.0441H9.15723V12.551H3.41324V18.0441ZM18.0923 32.082H24.4745V26.5889H18.0923V32.082ZM10.4337 18.0441H16.8159V12.551H10.4337V18.0441ZM25.751 32.082H31.495V26.5889H25.751V32.082ZM18.0923 25.3683H24.4745V19.2648H18.0923V25.3683ZM11.0719 8.88894V3.39584C11.0719 3.23054 11.0087 3.08749 10.8824 2.96669C10.7561 2.84589 10.6065 2.7855 10.4337 2.7855H9.15723C8.98438 2.7855 8.83479 2.84589 8.70848 2.96669C8.58216 3.08749 8.51901 3.23054 8.51901 3.39584V8.88894C8.51901 9.05425 8.58216 9.19729 8.70848 9.31809C8.83479 9.43889 8.98438 9.49929 9.15723 9.49929H10.4337C10.6065 9.49929 10.7561 9.43889 10.8824 9.31809C11.0087 9.19729 11.0719 9.05425 11.0719 8.88894ZM25.751 25.3683H31.495V19.2648H25.751V25.3683ZM18.0923 18.0441H24.4745V12.551H18.0923V18.0441ZM25.751 18.0441H31.495V12.551H25.751V18.0441ZM26.3892 8.88894V3.39584C26.3892 3.23054 26.326 3.08749 26.1997 2.96669C26.0734 2.84589 25.9238 2.7855 25.751 2.7855H24.4745C24.3017 2.7855 24.1521 2.84589 24.0258 2.96669C23.8995 3.08749 23.8363 3.23054 23.8363 3.39584V8.88894C23.8363 9.05425 23.8995 9.19729 24.0258 9.31809C24.1521 9.43889 24.3017 9.49929 24.4745 9.49929H25.751C25.9238 9.49929 26.0734 9.43889 26.1997 9.31809C26.326 9.19729 26.3892 9.05425 26.3892 8.88894ZM34.0479 7.66825V32.082C34.0479 32.7433 33.7952 33.3155 33.29 33.7986C32.7847 34.2818 32.1864 34.5234 31.495 34.5234H3.41324C2.72183 34.5234 2.1235 34.2818 1.61824 33.7986C1.11298 33.3155 0.860352 32.7433 0.860352 32.082V7.66825C0.860352 7.00705 1.11298 6.43485 1.61824 5.95166C2.1235 5.46847 2.72183 5.22687 3.41324 5.22687H5.96612V3.39584C5.96612 2.55662 6.27858 1.83819 6.90351 1.24056C7.52843 0.642931 8.27967 0.344116 9.15723 0.344116H10.4337C11.3112 0.344116 12.0625 0.642931 12.6874 1.24056C13.3123 1.83819 13.6248 2.55662 13.6248 3.39584V5.22687H21.2834V3.39584C21.2834 2.55662 21.5959 1.83819 22.2208 1.24056C22.8457 0.642931 23.597 0.344116 24.4745 0.344116H25.751C26.6285 0.344116 27.3798 0.642931 28.0047 1.24056C28.6296 1.83819 28.9421 2.55662 28.9421 3.39584V5.22687H31.495C32.1864 5.22687 32.7847 5.46847 33.29 5.95166C33.7952 6.43485 34.0479 7.00705 34.0479 7.66825Z" fill="#86A2FF"/>
</svg>
