<svg width="39" height="38" viewBox="0 0 39 38" fill="none" xmlns="http://www.w3.org/2000/svg">
<path d="M23.0946 10.3168C22.9033 11.2696 22.5803 12.1748 22.1454 13.0125C23.4793 14.2379 25.2587 14.9859 27.2129 14.9859C31.3511 14.9859 34.7058 11.6312 34.7058 7.49296C34.7058 3.35471 31.3511 0 27.2129 0C24.9593 0 22.9381 0.994883 21.5645 2.5694C22.0914 3.35656 22.5125 4.22054 22.8075 5.14098C23.6483 3.56926 25.3057 2.5 27.2129 2.5C29.9704 2.5 32.2058 4.73542 32.2058 7.49296C32.2058 10.2505 29.9704 12.4859 27.2129 12.4859C25.5034 12.4859 23.9946 11.6268 23.0946 10.3168Z" fill="black"/>
<path d="M35.4594 27.862C35.7922 29.0715 36.0278 30.3408 36.1604 31.6408L28.2947 31.6408C28.4559 32.4636 28.5801 33.2986 28.6669 34.1408H38.7872C38.7872 33.3027 38.7486 32.4674 38.6722 31.6408C38.5314 30.1182 38.2623 28.6252 37.8697 27.1986C37.264 24.9977 36.3762 22.9979 35.257 21.3133C34.1378 19.6288 32.8092 18.2926 31.3469 17.3809C29.8846 16.4692 28.3173 16 26.7345 16C25.1517 16 23.5844 16.4692 22.1221 17.3809C21.5942 17.71 21.0837 18.0944 20.5942 18.5306C21.2733 19.013 21.9192 19.56 22.5284 20.1646C22.8303 19.9153 23.1365 19.6946 23.4447 19.5024C24.5468 18.8153 25.6605 18.5 26.7345 18.5C27.8084 18.5 28.9222 18.8153 30.0242 19.5024C31.1354 20.1951 32.2192 21.2586 33.1747 22.6968C34.1295 24.1338 34.9151 25.8845 35.4594 27.862Z" fill="black"/>
<path fill-rule="evenodd" clip-rule="evenodd" d="M13.0141 13.5634C15.9311 13.5634 18.2958 11.1987 18.2958 8.28169C18.2958 5.36469 15.9311 3 13.0141 3C10.0971 3 7.73242 5.36469 7.73242 8.28169C7.73242 11.1987 10.0971 13.5634 13.0141 13.5634ZM13.0141 16.5634C17.588 16.5634 21.2958 12.8555 21.2958 8.28169C21.2958 3.70784 17.588 0 13.0141 0C8.44026 0 4.73242 3.70784 4.73242 8.28169C4.73242 12.8555 8.44026 16.5634 13.0141 16.5634Z" fill="black"/>
<path fill-rule="evenodd" clip-rule="evenodd" d="M23.6256 34.0703C23.4753 32.9026 23.2379 31.7625 22.9176 30.6709C22.3268 28.6574 21.4749 26.878 20.4416 25.4191C19.4081 23.9601 18.2343 22.8784 17.0252 22.1714C15.8245 21.4692 14.5996 21.1407 13.4084 21.1407C12.2173 21.1407 10.9924 21.4692 9.79165 22.1714C8.58264 22.8784 7.40884 23.9601 6.37532 25.4191C5.34199 26.878 4.49007 28.6574 3.89931 30.6709C3.57903 31.7625 3.34155 32.9026 3.19131 34.0703L23.6256 34.0703ZM26.6474 34.0703C26.4822 32.617 26.1971 31.1925 25.7962 29.8263C25.1224 27.5296 24.1347 25.4429 22.8897 23.6851C21.6446 21.9273 20.1664 20.533 18.5396 19.5817C16.9129 18.6304 15.1693 18.1407 13.4084 18.1407C11.6476 18.1407 9.90405 18.6304 8.27726 19.5817C6.65047 20.533 5.17233 21.9273 3.92724 23.6851C2.68215 25.4429 1.69449 27.5296 1.02066 29.8263C0.619814 31.1925 0.334692 32.617 0.169458 34.0703C0.0569248 35.0601 0 36.0632 0 37.0703L26.8169 37.0703C26.8169 36.0632 26.76 35.0601 26.6474 34.0703Z" fill="black"/>
</svg>
