<svg width="227" height="62" viewBox="0 0 227 62" fill="none" xmlns="http://www.w3.org/2000/svg">
<path d="M91.3603 19.7074C94.7845 19.7074 97.3465 20.4526 99.0463 21.943C100.758 23.4334 101.614 25.552 101.614 28.2988C101.614 29.5305 101.436 30.7129 101.079 31.8461C100.734 32.9793 100.161 33.9893 99.3604 34.8762C98.5721 35.763 97.5189 36.4651 96.201 36.9824C94.8954 37.4998 93.2818 37.7584 91.3603 37.7584H89.3095V46.7193H82.0115V19.7074H91.3603ZM91.194 25.6013H89.3095V31.8092H90.7506C91.3788 31.8092 91.9638 31.7045 92.5058 31.4951C93.0478 31.2734 93.4789 30.9223 93.7991 30.442C94.1317 29.9493 94.298 29.2965 94.298 28.4835C94.298 27.6336 94.0455 26.9439 93.5405 26.4142C93.0355 25.8722 92.2533 25.6013 91.194 25.6013Z" fill="white"/>
<path d="M111.962 17.9707V22.0539C111.962 23.6059 111.925 24.9115 111.851 25.9708C111.789 27.0178 111.728 27.8184 111.666 28.3727H111.999C112.454 27.6459 112.972 27.067 113.551 26.6359C114.13 26.2048 114.77 25.8969 115.472 25.7121C116.174 25.515 116.938 25.4165 117.763 25.4165C119.143 25.4165 120.387 25.6813 121.495 26.211C122.616 26.7406 123.509 27.572 124.174 28.7052C124.839 29.8261 125.172 31.2919 125.172 33.1025V46.7193H117.911V35.3011C117.911 33.9093 117.708 32.8623 117.301 32.1602C116.895 31.4458 116.267 31.0886 115.417 31.0886C114.542 31.0886 113.852 31.3411 113.347 31.8461C112.842 32.3388 112.485 33.0655 112.276 34.0263C112.066 34.9747 111.962 36.1387 111.962 37.5182V46.7193H104.738V17.9707H111.962Z" fill="white"/>
<path d="M149.321 36.2065C149.321 37.9555 149.081 39.5075 148.6 40.8624C148.12 42.2173 147.424 43.3566 146.512 44.2804C145.601 45.2042 144.499 45.9063 143.205 46.3867C141.912 46.8548 140.452 47.0888 138.826 47.0888C137.311 47.0888 135.92 46.8548 134.651 46.3867C133.395 45.9063 132.298 45.2042 131.362 44.2804C130.426 43.3566 129.699 42.2173 129.182 40.8624C128.677 39.5075 128.425 37.9555 128.425 36.2065C128.425 33.8908 128.843 31.9324 129.681 30.3311C130.531 28.7299 131.738 27.5104 133.302 26.6729C134.879 25.8353 136.757 25.4165 138.937 25.4165C140.945 25.4165 142.731 25.8353 144.295 26.6729C145.86 27.5104 147.085 28.7299 147.972 30.3311C148.871 31.9324 149.321 33.8908 149.321 36.2065ZM135.759 36.2065C135.759 37.4012 135.864 38.4113 136.074 39.2365C136.283 40.0495 136.616 40.6715 137.071 41.1026C137.539 41.5214 138.149 41.7308 138.9 41.7308C139.652 41.7308 140.249 41.5214 140.693 41.1026C141.136 40.6715 141.456 40.0495 141.653 39.2365C141.863 38.4113 141.967 37.4012 141.967 36.2065C141.967 35.0117 141.863 34.014 141.653 33.2134C141.456 32.4127 141.13 31.8092 140.674 31.4027C140.231 30.9962 139.627 30.793 138.863 30.793C137.767 30.793 136.973 31.2487 136.48 32.1602C136 33.0717 135.759 34.4204 135.759 36.2065Z" fill="white"/>
<path d="M165.802 25.4165C167.958 25.4165 169.719 26.0262 171.086 27.2456C172.453 28.465 173.137 30.4173 173.137 33.1025V46.7193H165.913V35.3011C165.913 33.9093 165.71 32.8623 165.303 32.1602C164.909 31.4458 164.269 31.0886 163.382 31.0886C162.015 31.0886 161.097 31.6491 160.629 32.7699C160.161 33.8785 159.927 35.4736 159.927 37.5552V46.7193H152.703V25.786H158.153L159.132 28.5574H159.409C159.853 27.8923 160.382 27.3257 160.998 26.8576C161.614 26.3896 162.322 26.0324 163.123 25.786C163.924 25.5397 164.817 25.4165 165.802 25.4165Z" fill="white"/>
<path d="M197.286 36.2065C197.286 37.9555 197.046 39.5075 196.565 40.8624C196.085 42.2173 195.389 43.3566 194.477 44.2804C193.566 45.2042 192.464 45.9063 191.17 46.3867C189.877 46.8548 188.417 47.0888 186.791 47.0888C185.276 47.0888 183.885 46.8548 182.616 46.3867C181.36 45.9063 180.263 45.2042 179.327 44.2804C178.391 43.3566 177.664 42.2173 177.147 40.8624C176.642 39.5075 176.39 37.9555 176.39 36.2065C176.39 33.8908 176.808 31.9324 177.646 30.3311C178.496 28.7299 179.703 27.5104 181.267 26.6729C182.844 25.8353 184.722 25.4165 186.902 25.4165C188.91 25.4165 190.696 25.8353 192.26 26.6729C193.825 27.5104 195.05 28.7299 195.937 30.3311C196.836 31.9324 197.286 33.8908 197.286 36.2065ZM183.724 36.2065C183.724 37.4012 183.829 38.4113 184.039 39.2365C184.248 40.0495 184.581 40.6715 185.036 41.1026C185.504 41.5214 186.114 41.7308 186.865 41.7308C187.617 41.7308 188.214 41.5214 188.658 41.1026C189.101 40.6715 189.421 40.0495 189.618 39.2365C189.828 38.4113 189.932 37.4012 189.932 36.2065C189.932 35.0117 189.828 34.014 189.618 33.2134C189.421 32.4127 189.095 31.8092 188.639 31.4027C188.196 30.9962 187.592 30.793 186.828 30.793C185.732 30.793 184.938 31.2487 184.445 32.1602C183.965 33.0717 183.724 34.4204 183.724 36.2065Z" fill="white"/>
<path d="M216.224 40.2896C216.224 41.6199 215.929 42.7962 215.338 43.8185C214.746 44.8409 213.798 45.6415 212.492 46.2204C211.199 46.7993 209.493 47.0888 207.374 47.0888C205.884 47.0888 204.548 47.0087 203.365 46.8486C202.195 46.6885 201.006 46.3805 199.799 45.9248V40.1418C201.117 40.7454 202.46 41.1826 203.827 41.4536C205.194 41.7123 206.272 41.8416 207.06 41.8416C207.873 41.8416 208.465 41.7554 208.834 41.583C209.216 41.3982 209.407 41.1272 209.407 40.77C209.407 40.4621 209.277 40.2034 209.019 39.994C208.772 39.7723 208.323 39.5198 207.67 39.2365C207.03 38.9532 206.124 38.5714 204.954 38.091C203.796 37.6106 202.829 37.0871 202.053 36.5205C201.29 35.954 200.717 35.2765 200.335 34.4882C199.953 33.6999 199.762 32.733 199.762 31.5875C199.762 29.5428 200.551 28.0031 202.127 26.9685C203.704 25.9338 205.792 25.4165 208.391 25.4165C209.77 25.4165 211.07 25.5705 212.289 25.8784C213.508 26.174 214.771 26.6113 216.077 27.1902L214.1 31.8461C213.065 31.3781 212.018 31.0024 210.959 30.7191C209.899 30.4358 209.056 30.2942 208.428 30.2942C207.861 30.2942 207.424 30.3681 207.116 30.5159C206.808 30.6637 206.654 30.8792 206.654 31.1625C206.654 31.4212 206.759 31.6491 206.968 31.8461C207.19 32.0432 207.602 32.2711 208.206 32.5297C208.809 32.7884 209.69 33.1518 210.848 33.6198C212.067 34.1125 213.071 34.6422 213.859 35.2088C214.66 35.763 215.251 36.4405 215.633 37.2411C216.027 38.0417 216.224 39.0579 216.224 40.2896Z" fill="white"/>
<path d="M218.59 43.6523C218.59 42.3466 218.972 41.429 219.736 40.8993C220.512 40.3697 221.442 40.1049 222.525 40.1049C223.548 40.1049 224.435 40.3697 225.186 40.8993C225.937 41.429 226.313 42.3466 226.313 43.6523C226.313 44.8963 225.937 45.7955 225.186 46.3497C224.435 46.904 223.548 47.1812 222.525 47.1812C221.442 47.1812 220.512 46.904 219.736 46.3497C218.972 45.7955 218.59 44.8963 218.59 43.6523Z" fill="white"/>
<path d="M0 29.1517C0 13.6018 12.6057 0.996094 28.1556 0.996094H30.4451C45.995 0.996094 58.6007 13.6018 58.6007 29.1517V29.1517C58.6007 44.7016 45.995 57.3073 30.4451 57.3073H28.1556C12.6057 57.3073 0 44.7016 0 29.1517V29.1517Z" fill="#DBEFFA"/>
<mask id="mask0_1061_3483" style="mask-type:alpha" maskUnits="userSpaceOnUse" x="8" y="4" width="61" height="58">
<path d="M68.3674 33.0617C68.3674 49.0436 54.8848 61.9995 38.2532 61.9995C21.6215 61.9995 8.13892 49.0436 8.13892 33.0617C8.13892 17.0799 21.6215 4.12402 38.2532 4.12402C54.8848 4.12402 68.3674 17.0799 68.3674 33.0617Z" fill="#C4E9FA"/>
</mask>
<g mask="url(#mask0_1061_3483)">
<path d="M-24.5898 -10.2061H82.5046V73.1643H-24.5898V-10.2061Z" fill="#449BC0"/>
<path d="M15.9301 21.0947C13.0719 11.176 18.5558 5.53352 21.655 3.95215L59.9221 11.447V31.779C59.652 33.8305 53.6855 37.9184 53.2551 42.503C47.7987 45.5814 34.007 49.1147 30.6515 48.2438C30.1896 48.124 27.7674 48.4432 26.6052 48.4432C23.8647 48.3767 17.936 47.9408 16.1453 46.7289C14.3546 45.517 14.5957 43.3535 14.94 42.4233C14.8683 41.7854 14.5698 40.4539 13.95 40.2307C13.3301 40.0074 13.0604 39.4998 13.003 39.2739C12.6586 38.2852 13.4908 37.6393 13.95 37.44C13.5769 37.2141 12.7878 36.5789 12.6156 35.8453C12.4004 34.9284 13.4334 34.2108 13.95 33.4534C14.3632 32.8474 13.9213 32.2972 13.6487 32.0979C12.4721 31.274 10.5839 29.4268 12.4434 28.6295C14.7678 27.6328 15.7579 23.6462 15.9301 22.8489C16.0678 22.211 15.9874 21.4137 15.9301 21.0947Z" fill="#DBEFFA"/>
<path d="M61.7429 52.3582C60.3684 45.874 60.6246 40.4339 60.9245 38.5243L33.1174 44.285L35.7432 62.7051C44.9824 61.9579 63.1173 58.8425 61.7429 52.3582Z" fill="#DBEFFA"/>
<path d="M18.7389 8.44113C21.9073 4.48922 26.3627 1.45907 31.5275 -0.256581C36.6924 -1.97223 42.3286 -2.29427 47.7056 -1.18095C53.0826 -0.06764 57.9526 2.42969 61.6842 5.98735C65.4158 9.54501 67.8371 13.999 68.6342 18.7719C69.4312 23.5449 68.5674 28.4168 66.1545 32.7561C63.7417 37.0955 59.8911 40.7022 55.1019 43.1089C50.3127 45.5156 44.8057 46.6112 39.2946 46.2537C33.7836 45.8962 28.5226 44.1022 24.1936 41.1041L41.3389 22.2444L18.7389 8.44113Z" fill="#DBEFFA"/>
<path fill-rule="evenodd" clip-rule="evenodd" d="M39.9114 44.0717C41.642 44.1509 43.3735 43.9372 44.9175 43.6137C52.3409 42.0581 55.171 34.8514 53.9631 29.0753C52.9029 24.0049 49.9483 21.0456 49.1397 20.341C45.9029 17.5205 40.1284 15.3704 35.5543 18.876C33.3348 20.5771 31.9726 23.2752 31.4092 26.6631C30.8478 30.0386 31.0307 34.3299 32.0907 39.6648C32.2138 40.2845 32.4941 41.5445 32.7322 42.602C32.8536 43.1411 32.9678 43.644 33.0517 44.012C33.0936 44.1961 33.1279 44.3466 33.1519 44.4512L33.1808 44.5775C33.6893 47.0596 33.7277 48.5311 32.8864 49.544C31.9914 50.6214 29.0153 52.4147 19.6399 51.9752L19.4104 58.6525C29.0546 59.1046 35.0267 57.525 38.0854 53.8425C40.8545 50.5087 40.3647 46.4417 39.9114 44.0717ZM38.0359 27.8375C37.6883 29.9272 37.7033 32.9273 38.4245 37.0838C38.7482 37.2074 39.1615 37.3072 39.6876 37.3614C40.7697 37.4727 42.0763 37.3601 43.4526 37.0717C46.441 36.4454 48.0376 33.4616 47.3882 30.3561C47.0611 28.7916 46.4427 27.5706 45.87 26.709C45.5837 26.2783 45.3126 25.9433 45.1034 25.7082C44.999 25.5909 44.9118 25.5004 44.8483 25.4373C44.7901 25.3795 44.7567 25.3495 44.7526 25.3459C44.7521 25.3454 44.7521 25.3455 44.7526 25.3459C42.604 23.4737 40.5694 23.5219 39.6951 24.1919C39.1903 24.5788 38.4184 25.5379 38.0359 27.8375Z" fill="#449BC0"/>
</g>
</svg>
