<svg width="145" height="39" viewBox="0 0 145 39" fill="none" xmlns="http://www.w3.org/2000/svg">
<path d="M57.7812 13.209C59.9531 13.209 61.5781 13.6816 62.6562 14.627C63.7422 15.5723 64.2852 16.916 64.2852 18.6582C64.2852 19.4395 64.1719 20.1895 63.9453 20.9082C63.7266 21.627 63.3633 22.2676 62.8555 22.8301C62.3555 23.3926 61.6875 23.8379 60.8516 24.166C60.0234 24.4941 59 24.6582 57.7812 24.6582H56.4805V30.3418H51.8516V13.209H57.7812ZM57.6758 16.9473H56.4805V20.8848H57.3945C57.793 20.8848 58.1641 20.8184 58.5078 20.6855C58.8516 20.5449 59.125 20.3223 59.3281 20.0176C59.5391 19.7051 59.6445 19.291 59.6445 18.7754C59.6445 18.2363 59.4844 17.7988 59.1641 17.4629C58.8438 17.1191 58.3477 16.9473 57.6758 16.9473ZM70.8481 12.1074V14.6973C70.8481 15.6816 70.8247 16.5098 70.7778 17.1816C70.7388 17.8457 70.6997 18.3535 70.6606 18.7051H70.8716C71.1606 18.2441 71.4888 17.877 71.8559 17.6035C72.2231 17.3301 72.6294 17.1348 73.0747 17.0176C73.52 16.8926 74.0044 16.8301 74.5278 16.8301C75.4028 16.8301 76.1919 16.998 76.895 17.334C77.6059 17.6699 78.1723 18.1973 78.5942 18.916C79.0161 19.627 79.227 20.5566 79.227 21.7051V30.3418H74.6216V23.0996C74.6216 22.2168 74.4927 21.5527 74.2348 21.1074C73.977 20.6543 73.5786 20.4277 73.0395 20.4277C72.4848 20.4277 72.0473 20.5879 71.727 20.9082C71.4067 21.2207 71.1802 21.6816 71.0473 22.291C70.9145 22.8926 70.8481 23.6309 70.8481 24.5059V30.3418H66.2661V12.1074H70.8481ZM94.5439 23.6738C94.5439 24.7832 94.3916 25.7676 94.0869 26.627C93.7822 27.4863 93.3408 28.209 92.7627 28.7949C92.1845 29.3809 91.4853 29.8262 90.665 30.1309C89.8447 30.4277 88.9189 30.5762 87.8877 30.5762C86.9267 30.5762 86.0439 30.4277 85.2392 30.1309C84.4423 29.8262 83.747 29.3809 83.1533 28.7949C82.5595 28.209 82.0986 27.4863 81.7705 26.627C81.4502 25.7676 81.29 24.7832 81.29 23.6738C81.29 22.2051 81.5556 20.9629 82.0869 19.9473C82.6259 18.9316 83.3916 18.1582 84.3838 17.627C85.3838 17.0957 86.5752 16.8301 87.958 16.8301C89.2314 16.8301 90.3642 17.0957 91.3564 17.627C92.3486 18.1582 93.1259 18.9316 93.6884 19.9473C94.2588 20.9629 94.5439 22.2051 94.5439 23.6738ZM85.9423 23.6738C85.9423 24.4316 86.0088 25.0723 86.1416 25.5957C86.2744 26.1113 86.4853 26.5059 86.7744 26.7793C87.0713 27.0449 87.458 27.1777 87.9345 27.1777C88.4111 27.1777 88.79 27.0449 89.0713 26.7793C89.3525 26.5059 89.5556 26.1113 89.6806 25.5957C89.8134 25.0723 89.8798 24.4316 89.8798 23.6738C89.8798 22.916 89.8134 22.2832 89.6806 21.7754C89.5556 21.2676 89.3486 20.8848 89.0595 20.627C88.7783 20.3691 88.3955 20.2402 87.9111 20.2402C87.2158 20.2402 86.7119 20.5293 86.3994 21.1074C86.0947 21.6855 85.9423 22.541 85.9423 23.6738ZM104.998 16.8301C106.365 16.8301 107.482 17.2168 108.349 17.9902C109.216 18.7637 109.65 20.002 109.65 21.7051V30.3418H105.068V23.0996C105.068 22.2168 104.939 21.5527 104.681 21.1074C104.431 20.6543 104.025 20.4277 103.462 20.4277C102.595 20.4277 102.013 20.7832 101.716 21.4941C101.419 22.1973 101.271 23.209 101.271 24.5293V30.3418H96.6889V17.0645H100.146L100.767 18.8223H100.943C101.224 18.4004 101.56 18.041 101.951 17.7441C102.341 17.4473 102.79 17.2207 103.298 17.0645C103.806 16.9082 104.373 16.8301 104.998 16.8301ZM124.967 23.6738C124.967 24.7832 124.814 25.7676 124.51 26.627C124.205 27.4863 123.764 28.209 123.185 28.7949C122.607 29.3809 121.908 29.8262 121.088 30.1309C120.268 30.4277 119.342 30.5762 118.31 30.5762C117.35 30.5762 116.467 30.4277 115.662 30.1309C114.865 29.8262 114.17 29.3809 113.576 28.7949C112.982 28.209 112.521 27.4863 112.193 26.627C111.873 25.7676 111.713 24.7832 111.713 23.6738C111.713 22.2051 111.978 20.9629 112.51 19.9473C113.049 18.9316 113.814 18.1582 114.807 17.627C115.807 17.0957 116.998 16.8301 118.381 16.8301C119.654 16.8301 120.787 17.0957 121.779 17.627C122.771 18.1582 123.549 18.9316 124.111 19.9473C124.682 20.9629 124.967 22.2051 124.967 23.6738ZM116.365 23.6738C116.365 24.4316 116.432 25.0723 116.564 25.5957C116.697 26.1113 116.908 26.5059 117.197 26.7793C117.494 27.0449 117.881 27.1777 118.357 27.1777C118.834 27.1777 119.213 27.0449 119.494 26.7793C119.775 26.5059 119.978 26.1113 120.103 25.5957C120.236 25.0723 120.303 24.4316 120.303 23.6738C120.303 22.916 120.236 22.2832 120.103 21.7754C119.978 21.2676 119.771 20.8848 119.482 20.627C119.201 20.3691 118.818 20.2402 118.334 20.2402C117.639 20.2402 117.135 20.5293 116.822 21.1074C116.518 21.6855 116.365 22.541 116.365 23.6738ZM136.979 26.2637C136.979 27.1074 136.791 27.8535 136.416 28.502C136.041 29.1504 135.44 29.6582 134.612 30.0254C133.791 30.3926 132.709 30.5762 131.366 30.5762C130.42 30.5762 129.573 30.5254 128.823 30.4238C128.08 30.3223 127.327 30.127 126.561 29.8379V26.1699C127.397 26.5527 128.248 26.8301 129.116 27.002C129.983 27.166 130.666 27.248 131.166 27.248C131.682 27.248 132.057 27.1934 132.291 27.084C132.534 26.9668 132.655 26.7949 132.655 26.5684C132.655 26.373 132.573 26.209 132.409 26.0762C132.252 25.9355 131.967 25.7754 131.553 25.5957C131.147 25.416 130.573 25.1738 129.83 24.8691C129.096 24.5645 128.483 24.2324 127.991 23.873C127.506 23.5137 127.143 23.084 126.901 22.584C126.659 22.084 126.537 21.4707 126.537 20.7441C126.537 19.4473 127.037 18.4707 128.037 17.8145C129.037 17.1582 130.362 16.8301 132.01 16.8301C132.885 16.8301 133.709 16.9277 134.483 17.123C135.256 17.3105 136.057 17.5879 136.885 17.9551L135.631 20.9082C134.975 20.6113 134.311 20.373 133.639 20.1934C132.967 20.0137 132.432 19.9238 132.034 19.9238C131.674 19.9238 131.397 19.9707 131.202 20.0645C131.006 20.1582 130.909 20.2949 130.909 20.4746C130.909 20.6387 130.975 20.7832 131.108 20.9082C131.248 21.0332 131.51 21.1777 131.893 21.3418C132.276 21.5059 132.834 21.7363 133.569 22.0332C134.342 22.3457 134.979 22.6816 135.479 23.041C135.987 23.3926 136.362 23.8223 136.604 24.3301C136.854 24.8379 136.979 25.4824 136.979 26.2637ZM138.479 28.3965C138.479 27.5684 138.722 26.9863 139.206 26.6504C139.698 26.3145 140.288 26.1465 140.975 26.1465C141.624 26.1465 142.186 26.3145 142.663 26.6504C143.14 26.9863 143.378 27.5684 143.378 28.3965C143.378 29.1855 143.14 29.7559 142.663 30.1074C142.186 30.459 141.624 30.6348 140.975 30.6348C140.288 30.6348 139.698 30.459 139.206 30.1074C138.722 29.7559 138.479 29.1855 138.479 28.3965Z" fill="white"/>
<rect y="0.297852" width="36" height="36.2679" rx="18" fill="#DBEFFA"/>
<mask id="mask0_632_3113" style="mask-type:alpha" maskUnits="userSpaceOnUse" x="6" y="2" width="36" height="37">
<ellipse cx="24" cy="20.4465" rx="18" ry="18.134" fill="#C4E9FA"/>
</mask>
<g mask="url(#mask0_632_3113)">
<rect x="-13.5625" y="-6.66699" width="64.0129" height="52.2444" fill="#449BC0"/>
<path d="M13.4022 13.3847C11.5463 6.80087 15.1071 3.05554 17.1195 2.00586L41.9668 6.98081V20.4767C41.7914 21.8385 37.9173 24.5519 37.6378 27.5951C34.0949 29.6384 25.1398 31.9838 22.961 31.4057C22.6611 31.3262 21.0884 31.538 20.3337 31.538C18.5543 31.4939 14.7046 31.2046 13.5419 30.4001C12.3792 29.5957 12.5358 28.1596 12.7593 27.5422C12.7128 27.1188 12.519 26.2349 12.1165 26.0868C11.714 25.9386 11.5389 25.6016 11.5016 25.4517C11.278 24.7954 11.8184 24.3667 12.1165 24.2344C11.8743 24.0844 11.3619 23.6628 11.2501 23.1759C11.1103 22.5672 11.7811 22.0909 12.1165 21.5881C12.3848 21.1859 12.0979 20.8207 11.9209 20.6884C11.1569 20.1415 9.93084 18.9154 11.1383 18.3862C12.6475 17.7246 13.2904 15.0783 13.4022 14.5491C13.4916 14.1257 13.4395 13.5964 13.4022 13.3847Z" fill="#DBEFFA"/>
<path d="M38.1124 34.1979C37.3751 31.2418 37.5259 28.764 37.6935 27.8945L22.5001 30.4756L23.8965 38.871C28.9424 38.545 38.8497 37.1539 38.1124 34.1979Z" fill="#DBEFFA"/>
<path d="M14.7824 4.20078C16.6762 1.7243 19.3393 -0.174562 22.4264 -1.24968C25.5136 -2.3248 28.8825 -2.52661 32.0964 -1.82894C35.3104 -1.13128 38.2213 0.433684 40.4518 2.66311C42.6822 4.89253 44.1295 7.68362 44.6059 10.6746C45.0824 13.6656 44.566 16.7186 43.1238 19.4379C41.6816 22.1572 39.38 24.4174 36.5174 25.9255C33.6548 27.4336 30.3631 28.1202 27.069 27.8962C23.7749 27.6722 20.6303 26.5479 18.0427 24.6692L28.2909 12.8507L14.7824 4.20078Z" fill="#DBEFFA"/>
<path d="M18 34.2491C20.0818 34.0701 23.7801 32.9517 25.0252 32.2022C27.5465 30.6843 28.4284 29.062 26.7832 19.2691C25.4671 11.4348 30.9725 10.608 33.8897 11.1738" stroke="#449BC0" stroke-width="3" stroke-linecap="round"/>
<path d="M23.9197 23.4156L32.4478 22.3176" stroke="#449BC0" stroke-width="3" stroke-linecap="round"/>
</g>
</svg>
