<svg width="152" height="45" viewBox="0 0 152 45" fill="none" xmlns="http://www.w3.org/2000/svg">
<path d="M62.4612 14.6881C64.721 14.6881 66.4118 15.1799 67.5336 16.1635C68.6634 17.1471 69.2284 18.5452 69.2284 20.3579C69.2284 21.1708 69.1105 21.9512 68.8748 22.699C68.6472 23.4469 68.2692 24.1134 67.7408 24.6987C67.2206 25.284 66.5256 25.7473 65.6558 26.0887C64.7942 26.4301 63.7293 26.6008 62.4612 26.6008H61.1078V32.5145H56.2915V14.6881H62.4612ZM62.3515 18.5777H61.1078V22.6746H62.0588C62.4734 22.6746 62.8595 22.6055 63.2172 22.4673C63.5749 22.321 63.8594 22.0894 64.0707 21.7723C64.2902 21.4472 64.3999 21.0164 64.3999 20.4799C64.3999 19.919 64.2333 19.4638 63.9 19.1142C63.5667 18.7566 63.0506 18.5777 62.3515 18.5777Z" fill="#DBEFFA"/>
<path d="M76.057 13.542V16.2367C76.057 17.2609 76.0326 18.1225 75.9839 18.8216C75.9432 19.5126 75.9026 20.0409 75.8619 20.4067H76.0814C76.3822 19.9271 76.7236 19.5451 77.1056 19.2606C77.4877 18.9761 77.9104 18.7728 78.3737 18.6509C78.8371 18.5208 79.341 18.4558 79.8857 18.4558C80.7961 18.4558 81.6171 18.6306 82.3487 18.9801C83.0884 19.3297 83.6777 19.8783 84.1167 20.6262C84.5556 21.3659 84.7751 22.3332 84.7751 23.5281V32.5145H79.9832V24.9791C79.9832 24.0606 79.8491 23.3696 79.5808 22.9063C79.3126 22.4348 78.898 22.1991 78.3371 22.1991C77.76 22.1991 77.3048 22.3657 76.9715 22.699C76.6382 23.0242 76.4025 23.5038 76.2643 24.1378C76.1261 24.7637 76.057 25.5319 76.057 26.4423V32.5145H71.2895V13.542H76.057Z" fill="#DBEFFA"/>
<path d="M100.712 25.5766C100.712 26.7309 100.553 27.7551 100.236 28.6493C99.9194 29.5434 99.4602 30.2953 98.8586 30.905C98.2571 31.5146 97.5296 31.978 96.6761 32.295C95.8225 32.6039 94.8593 32.7583 93.7863 32.7583C92.7865 32.7583 91.8679 32.6039 91.0307 32.295C90.2015 31.978 89.4781 31.5146 88.8603 30.905C88.2425 30.2953 87.7629 29.5434 87.4215 28.6493C87.0882 27.7551 86.9216 26.7309 86.9216 25.5766C86.9216 24.0484 87.1979 22.7559 87.7507 21.6992C88.3116 20.6424 89.1082 19.8377 90.1406 19.2849C91.181 18.7322 92.4207 18.4558 93.8595 18.4558C95.1844 18.4558 96.3631 18.7322 97.3955 19.2849C98.4278 19.8377 99.2366 20.6424 99.8219 21.6992C100.415 22.7559 100.712 24.0484 100.712 25.5766ZM91.7622 25.5766C91.7622 26.3651 91.8313 27.0316 91.9695 27.5763C92.1077 28.1128 92.3272 28.5233 92.6279 28.8078C92.9368 29.0841 93.3392 29.2223 93.8351 29.2223C94.3309 29.2223 94.7252 29.0841 95.0178 28.8078C95.3104 28.5233 95.5218 28.1128 95.6518 27.5763C95.79 27.0316 95.8591 26.3651 95.8591 25.5766C95.8591 24.7881 95.79 24.1297 95.6518 23.6013C95.5218 23.0729 95.3064 22.6746 95.0056 22.4064C94.713 22.1381 94.3147 22.004 93.8107 22.004C93.0872 22.004 92.5629 22.3048 92.2378 22.9063C91.9207 23.5078 91.7622 24.3979 91.7622 25.5766Z" fill="#DBEFFA"/>
<path d="M111.589 18.4558C113.011 18.4558 114.174 18.8582 115.076 19.6629C115.978 20.4677 116.429 21.7561 116.429 23.5281V32.5145H111.662V24.9791C111.662 24.0606 111.528 23.3696 111.26 22.9063C110.999 22.4348 110.577 22.1991 109.991 22.1991C109.089 22.1991 108.484 22.569 108.175 23.3087C107.866 24.0403 107.711 25.0929 107.711 26.4667V32.5145H102.944V18.6997H106.541L107.187 20.5286H107.37C107.663 20.0897 108.012 19.7158 108.419 19.4069C108.825 19.098 109.292 18.8623 109.821 18.6997C110.349 18.5371 110.938 18.4558 111.589 18.4558Z" fill="#DBEFFA"/>
<path d="M132.366 25.5766C132.366 26.7309 132.208 27.7551 131.891 28.6493C131.574 29.5434 131.114 30.2953 130.513 30.905C129.911 31.5146 129.184 31.978 128.33 32.295C127.477 32.6039 126.514 32.7583 125.441 32.7583C124.441 32.7583 123.522 32.6039 122.685 32.295C121.856 31.978 121.132 31.5146 120.515 30.905C119.897 30.2953 119.417 29.5434 119.076 28.6493C118.743 27.7551 118.576 26.7309 118.576 25.5766C118.576 24.0484 118.852 22.7559 119.405 21.6992C119.966 20.6424 120.762 19.8377 121.795 19.2849C122.835 18.7322 124.075 18.4558 125.514 18.4558C126.839 18.4558 128.017 18.7322 129.05 19.2849C130.082 19.8377 130.891 20.6424 131.476 21.6992C132.07 22.7559 132.366 24.0484 132.366 25.5766ZM123.417 25.5766C123.417 26.3651 123.486 27.0316 123.624 27.5763C123.762 28.1128 123.981 28.5233 124.282 28.8078C124.591 29.0841 124.994 29.2223 125.489 29.2223C125.985 29.2223 126.379 29.0841 126.672 28.8078C126.965 28.5233 127.176 28.1128 127.306 27.5763C127.444 27.0316 127.513 26.3651 127.513 25.5766C127.513 24.7881 127.444 24.1297 127.306 23.6013C127.176 23.0729 126.961 22.6746 126.66 22.4064C126.367 22.1381 125.969 22.004 125.465 22.004C124.742 22.004 124.217 22.3048 123.892 22.9063C123.575 23.5078 123.417 24.3979 123.417 25.5766Z" fill="#DBEFFA"/>
<path d="M144.865 28.2713C144.865 29.1492 144.67 29.9255 144.279 30.6002C143.889 31.2748 143.263 31.8032 142.402 32.1853C141.548 32.5673 140.422 32.7583 139.024 32.7583C138.041 32.7583 137.159 32.7055 136.378 32.5998C135.606 32.4941 134.822 32.2909 134.025 31.9902V28.1737C134.895 28.572 135.781 28.8606 136.683 29.0394C137.585 29.2101 138.297 29.2955 138.817 29.2955C139.353 29.2955 139.744 29.2386 139.987 29.1248C140.239 29.0029 140.365 28.824 140.365 28.5883C140.365 28.3851 140.28 28.2144 140.109 28.0762C139.947 27.9299 139.65 27.7632 139.219 27.5763C138.797 27.3893 138.199 27.1373 137.427 26.8203C136.663 26.5033 136.025 26.1578 135.513 25.7839C135.009 25.41 134.631 24.9629 134.379 24.4426C134.127 23.9224 134.001 23.2843 134.001 22.5283C134.001 21.1789 134.521 20.1629 135.561 19.48C136.602 18.7972 137.98 18.4558 139.695 18.4558C140.605 18.4558 141.463 18.5574 142.268 18.7606C143.072 18.9557 143.905 19.2443 144.767 19.6264L143.462 22.699C142.78 22.3901 142.089 22.1422 141.39 21.9552C140.691 21.7683 140.134 21.6748 139.719 21.6748C139.345 21.6748 139.057 21.7236 138.853 21.8211C138.65 21.9187 138.549 22.0609 138.549 22.2479C138.549 22.4186 138.618 22.569 138.756 22.699C138.902 22.8291 139.175 22.9795 139.573 23.1502C139.971 23.3209 140.552 23.5607 141.316 23.8696C142.121 24.1947 142.784 24.5442 143.304 24.9182C143.832 25.284 144.223 25.731 144.475 26.2594C144.735 26.7878 144.865 27.4584 144.865 28.2713Z" fill="#DBEFFA"/>
<path d="M146.426 30.4904C146.426 29.6288 146.678 29.0232 147.182 28.6736C147.694 28.3241 148.308 28.1493 149.023 28.1493C149.698 28.1493 150.283 28.3241 150.779 28.6736C151.275 29.0232 151.523 29.6288 151.523 30.4904C151.523 31.3114 151.275 31.9048 150.779 32.2706C150.283 32.6364 149.698 32.8193 149.023 32.8193C148.308 32.8193 147.694 32.6364 147.182 32.2706C146.678 31.9048 146.426 31.3114 146.426 30.4904Z" fill="#DBEFFA"/>
<path d="M25.9638 15.611C22.5148 15.4029 22.91 22.3741 23.5387 25.8857C23.9698 26.1979 25.7842 26.1892 26.6375 26.1458C30.3021 25.9378 31.0386 22.7643 30.9488 21.2036C30.7242 19.4261 29.4129 15.8191 25.9638 15.611Z" fill="#DBEFFA"/>
<path d="M22.3387 44.9886C22.1912 44.9105 22.0497 44.8334 21.9149 44.7579L21.1086 39.8015C25.731 36.7755 25.4533 32.4539 24.7367 30.6714C28.5159 30.6714 30.9696 29.6279 31.724 29.1062C36.9914 25.9759 35.7999 19.976 34.5458 17.3674C31.2134 10.8981 25.8116 10.9328 23.5273 11.7589C15.2008 14.7431 19.5749 29.2257 20.1178 31.0231C20.1444 31.1111 20.1618 31.1687 20.168 31.1931C20.3024 31.7148 20.5711 33.8017 20.3024 34.0626C20.0874 34.2713 18.5108 34.0626 17.7493 33.9321C17.2119 34.1408 14.7484 34.193 13.5838 34.193C12.0161 34.0626 8.55832 33.6452 7.26835 33.0191C5.97838 32.3931 5.83505 31.0192 5.92464 30.4105C5.96943 30.2366 6.05901 29.7844 6.05901 29.3671C6.05901 28.9727 5.90544 28.8019 5.59831 28.4603C5.49914 28.35 5.38396 28.2219 5.25278 28.0628C5.11296 27.8931 5.00951 27.7764 4.9306 27.6874L4.93023 27.687C4.70617 27.4343 4.68028 27.4051 4.58092 27.0193C4.47342 26.6019 4.98403 26.1498 5.25278 25.9759C4.84966 25.715 4.31218 25.0628 4.31218 24.6716C4.31218 24.4154 4.42735 24.271 4.6577 23.9823C4.77921 23.83 4.93283 23.6374 5.1184 23.3672C5.5484 22.7412 5.29757 22.4108 5.1184 22.3238C4.53613 21.889 3.39845 20.863 3.50595 20.2369C3.61345 19.6108 4.62571 19.1065 5.1184 18.9326C5.2964 18.5582 5.50723 18.1838 5.72035 17.8052C6.47251 16.4692 7.25434 15.0805 6.73087 13.4545C6.22697 11.8893 6.28296 10.0633 6.32775 8.62855L6.81439 6.50293C2.60398 10.586 0 16.2254 0 22.4542C0 27.361 1.61585 31.9019 4.35994 35.6044C8.41425 41.0748 14.9314 44.7149 22.3387 45.0006V44.9886Z" fill="#449BC0"/>
<path d="M41.4241 36.5947L41.4002 36.4905C41.4002 36.4899 41.4002 36.4893 41.4002 36.4888C41.4 36.462 41.3995 36.4358 41.3987 36.4103C41.0404 33.7582 40.4313 28.2714 40.8613 27.541C41.0655 27.3186 41.2874 27.0828 41.5212 26.8344L41.5218 26.8338L41.522 26.8335C43.2858 24.9593 45.7214 22.3712 46.2897 19.4543H46.3575C46.492 20.4358 46.5614 21.4371 46.5614 22.4542C46.5614 27.8078 44.6379 32.7259 41.4241 36.5947Z" fill="#449BC0"/>
<path d="M25.7513 15.8674C22.7334 15.7633 23.2364 22.5871 23.8651 26.0121C24.8082 26.4022 27.2603 26.8184 29.5237 25.3618C31.7872 23.9051 31.2752 20.6796 30.7363 19.2489C30.3321 18.1651 28.7693 15.9714 25.7513 15.8674Z" fill="#DBEFFA"/>
<path d="M46.1735 20.0053C45.4429 22.7105 43.1807 25.1048 41.5161 26.8665L41.5159 26.8667C41.2816 27.1146 41.0592 27.35 40.8545 27.572C40.4363 28.2796 41 33.4637 41.3614 36.1834C37.1228 41.3935 30.5412 44.7399 23.1506 44.7399C22.7245 44.7399 22.301 44.7288 21.8805 44.7068L21.0787 39.7976C25.7065 36.7802 25.4285 32.4709 24.711 30.6934C28.4947 30.6934 30.9512 29.6529 31.7065 29.1327C36.9801 26.0113 35.7873 20.0285 34.5317 17.4273C31.1953 10.9764 25.7873 11.011 23.5003 11.8347C15.164 14.8105 19.5432 29.2519 20.0867 31.0442C20.1133 31.1319 20.1307 31.1894 20.137 31.2137C20.2715 31.7339 20.5406 33.8149 20.2715 34.075C20.0563 34.2831 18.4778 34.075 17.7155 33.9449C17.1774 34.153 14.711 34.205 13.5451 34.205C11.9756 34.075 8.51367 33.6588 7.22219 33.0345C5.9307 32.4102 5.7872 31.0403 5.87689 30.4333C5.92173 30.2599 6.01142 29.809 6.01142 29.3928C6.01142 28.9996 5.85767 28.8293 5.55018 28.4886C5.45089 28.3787 5.33558 28.2509 5.20424 28.0922C5.06427 27.9231 4.96069 27.8067 4.8817 27.718L4.88137 27.7176C4.65704 27.4656 4.63107 27.4364 4.5316 27.0517C4.42397 26.6356 4.93518 26.1847 5.20424 26.0113C4.80066 25.7511 4.26254 25.1009 4.26254 24.7107C4.26254 24.4552 4.37785 24.3113 4.60847 24.0234L4.6087 24.0231C4.73031 23.8713 4.88403 23.6793 5.06971 23.4101C5.50021 22.7858 5.24909 22.4563 5.06971 22.3696C4.48676 21.9361 3.34774 20.9129 3.45536 20.2886C3.56299 19.6644 4.57644 19.1614 5.06971 18.988C5.24798 18.6146 5.45905 18.2412 5.6725 17.8636C6.42555 16.5314 7.20816 15.1469 6.68407 13.5255C6.17958 11.9648 6.23564 10.144 6.28048 8.71331L6.74533 6.69097C10.9794 2.59899 16.8451 0.0482445 23.3353 0C35.2111 0.0896503 44.9576 8.81984 46.1735 20.0053Z" fill="#DBEFFA"/>
</svg>
