<svg width="34" height="35" viewBox="0 0 34 35" fill="none" xmlns="http://www.w3.org/2000/svg">
<path d="M14.2309 12.1269C13.7585 11.668 13.0069 11.668 12.5345 12.1269L10.128 14.4645C9.93401 14.653 9.62528 14.653 9.43126 14.4645L8.05424 13.1269C7.58187 12.668 6.83024 12.668 6.35788 13.1269C5.86573 13.6049 5.86573 14.3951 6.35788 14.8731L8.73448 17.1818C9.31655 17.7472 10.2427 17.7472 10.8248 17.1818L14.2309 13.8731C14.723 13.3951 14.723 12.6049 14.2309 12.1269Z" fill="black"/>
<path d="M14.2309 22.1269C13.7585 21.668 13.0069 21.668 12.5345 22.1269L10.128 24.4645C9.93401 24.653 9.62528 24.653 9.43126 24.4645L8.05424 23.1269C7.58187 22.668 6.83024 22.668 6.35788 23.1269C5.86573 23.6049 5.86573 24.3951 6.35788 24.8731L8.73448 27.1818C9.31655 27.7472 10.2427 27.7472 10.8248 27.1818L14.2309 23.8731C14.723 23.3951 14.723 22.6049 14.2309 22.1269Z" fill="black"/>
<path fill-rule="evenodd" clip-rule="evenodd" d="M7.72042 0C6.86761 0 6.17627 0.691341 6.17627 1.54415V2H4C1.79086 2 0 3.79086 0 6V31C0 33.2091 1.79086 35 4 35H29.9714C32.1805 35 33.9714 33.2091 33.9714 31V6C33.9714 3.79086 32.1805 2 29.9714 2H27.7944V1.54415C27.7944 0.691341 27.103 0 26.2502 0C25.3974 0 24.7061 0.691341 24.7061 1.54415V2H18.5297V1.54415C18.5297 0.691341 17.8384 0 16.9856 0C16.1327 0 15.4414 0.691341 15.4414 1.54415V2H9.26458V1.54415C9.26458 0.691341 8.57324 0 7.72042 0ZM15.4414 5H9.26458V5.45585C9.26458 6.30866 8.57324 7 7.72042 7C6.86761 7 6.17627 6.30866 6.17627 5.45585V5H4C3.44772 5 3 5.44772 3 6V31C3 31.5523 3.44772 32 4 32H29.9714C30.5237 32 30.9714 31.5523 30.9714 31V6C30.9714 5.44771 30.5237 5 29.9714 5H27.7944V5.45585C27.7944 6.30866 27.103 7 26.2502 7C25.3974 7 24.7061 6.30866 24.7061 5.45585V5H18.5297V5.45585C18.5297 6.30866 17.8384 7 16.9856 7C16.1327 7 15.4414 6.30866 15.4414 5.45585V5Z" fill="black"/>
<path d="M17 25.5C17 24.6716 17.6716 24 18.5 24H27.5C28.3284 24 29 24.6716 29 25.5C29 26.3284 28.3284 27 27.5 27H18.5C17.6716 27 17 26.3284 17 25.5Z" fill="black"/>
<path d="M17 14.5C17 13.6716 17.6716 13 18.5 13H27.5C28.3284 13 29 13.6716 29 14.5C29 15.3284 28.3284 16 27.5 16H18.5C17.6716 16 17 15.3284 17 14.5Z" fill="black"/>
</svg>
